<svg viewBox="0 0 20 20" fill="none" xmlns="http://www.w3.org/2000/svg">
<path  width="100%" height="100%" fill-rule="evenodd" clip-rule="evenodd" d="M5.73124 18.8327C5.22417 19.0974 4.61072 19.0508 4.14946 18.7125C3.68819 18.3743 3.45933 17.8032 3.55933 17.24L4.36867 12.6011L0.961252 9.33573C0.544754 8.93853 0.392114 8.33813 0.568348 7.79024C0.744582 7.24236 1.21864 6.84354 1.7886 6.76366L6.51957 6.08737L8.65546 1.8266C8.9087 1.31561 9.42971 0.992332 10 0.992332C10.5703 0.992332 11.0913 1.31561 11.3446 1.8266L13.4805 6.08737L18.2114 6.76366C18.7814 6.84354 19.2555 7.24236 19.4317 7.79024C19.6079 8.33813 19.4553 8.93853 19.0388 9.33573L15.6314 12.6011L16.4407 17.241C16.5407 17.8042 16.3118 18.3753 15.8506 18.7135C15.3893 19.0518 14.7759 19.0984 14.2688 18.8337L10 16.6278L5.73124 18.8327Z" />
</svg>
